# xmcd CD database file
#
# Track frame offsets:
#	150
#	23417
#	38284
#	66094
#	89104
#	97947
#
# Disc length: 1616 seconds
#
# Revision: 0
# Processed by: cddbd v1.5.2PL0 Copyright (c) Steve Scherf et al.
# Submitted via: CDex 1.51
#
DISCID=3a064e06
DTITLE=Spa Style - Refresh
DYEAR=2005
DGENRE=New Age
TTITLE0=Like a Swan
TTITLE1=In Paradise
TTITLE2=On the Water
TTITLE3=Reverie
TTITLE4=Song of the Angels
TTITLE5=At Peace
EXTD=YEAR: 2005
EXTT0=
EXTT1=
EXTT2=
EXTT3=
EXTT4=
EXTT5=
PLAYORDER=
